<mxfile host="app.diagrams.net" modified="2023-09-27T18:10:07.761Z" agent="Mozilla/5.0 (Windows NT 10.0; Win64; x64; rv:80.0) Gecko/20100101 Firefox/80.0" etag="rNieINn8fu8k9Y-y3lKN" version="21.8.2" type="device">
  <diagram name="Página-1" id="4aAkEFrhJYTyww_UJyT2">
    <mxGraphModel dx="662" dy="1783" grid="1" gridSize="10" guides="1" tooltips="1" connect="1" arrows="1" fold="1" page="1" pageScale="1" pageWidth="827" pageHeight="1169" math="0" shadow="0">
      <root>
        <mxCell id="0" />
        <mxCell id="1" parent="0" />
        <mxCell id="4DYsukLeD7sC-o7HN6_L-1" value="VEHÍCULOS" style="whiteSpace=wrap;html=1;align=center;" vertex="1" parent="1">
          <mxGeometry x="420" y="300" width="100" height="40" as="geometry" />
        </mxCell>
        <mxCell id="4DYsukLeD7sC-o7HN6_L-38" value="" style="edgeStyle=orthogonalEdgeStyle;rounded=0;orthogonalLoop=1;jettySize=auto;html=1;" edge="1" parent="1" source="4DYsukLeD7sC-o7HN6_L-2" target="4DYsukLeD7sC-o7HN6_L-37">
          <mxGeometry relative="1" as="geometry" />
        </mxCell>
        <mxCell id="4DYsukLeD7sC-o7HN6_L-55" value="" style="edgeStyle=orthogonalEdgeStyle;rounded=0;orthogonalLoop=1;jettySize=auto;html=1;" edge="1" parent="1" source="4DYsukLeD7sC-o7HN6_L-2" target="4DYsukLeD7sC-o7HN6_L-54">
          <mxGeometry relative="1" as="geometry" />
        </mxCell>
        <mxCell id="4DYsukLeD7sC-o7HN6_L-2" value="CLIENTE" style="whiteSpace=wrap;html=1;align=center;" vertex="1" parent="1">
          <mxGeometry x="1010" y="299" width="100" height="40" as="geometry" />
        </mxCell>
        <mxCell id="4DYsukLeD7sC-o7HN6_L-14" value="teléfono" style="ellipse;whiteSpace=wrap;html=1;align=center;" vertex="1" parent="1">
          <mxGeometry x="1010" y="419" width="100" height="40" as="geometry" />
        </mxCell>
        <mxCell id="4DYsukLeD7sC-o7HN6_L-15" value="Cód_cliente" style="ellipse;whiteSpace=wrap;html=1;align=center;fontStyle=4;" vertex="1" parent="1">
          <mxGeometry x="1010" y="359" width="100" height="40" as="geometry" />
        </mxCell>
        <mxCell id="4DYsukLeD7sC-o7HN6_L-16" value="Nombre" style="ellipse;shape=doubleEllipse;margin=3;whiteSpace=wrap;html=1;align=center;" vertex="1" parent="1">
          <mxGeometry x="1010" y="479" width="100" height="40" as="geometry" />
        </mxCell>
        <mxCell id="4DYsukLeD7sC-o7HN6_L-17" value="Dirección" style="ellipse;shape=doubleEllipse;margin=3;whiteSpace=wrap;html=1;align=center;" vertex="1" parent="1">
          <mxGeometry x="1010" y="544" width="100" height="40" as="geometry" />
        </mxCell>
        <mxCell id="4DYsukLeD7sC-o7HN6_L-18" value="" style="endArrow=none;html=1;rounded=0;exitX=0.5;exitY=0;exitDx=0;exitDy=0;entryX=0.5;entryY=1;entryDx=0;entryDy=0;" edge="1" parent="1" source="4DYsukLeD7sC-o7HN6_L-15" target="4DYsukLeD7sC-o7HN6_L-2">
          <mxGeometry width="50" height="50" relative="1" as="geometry">
            <mxPoint x="1080" y="399" as="sourcePoint" />
            <mxPoint x="1130" y="349" as="targetPoint" />
          </mxGeometry>
        </mxCell>
        <mxCell id="4DYsukLeD7sC-o7HN6_L-19" value="" style="endArrow=none;html=1;rounded=0;exitX=1;exitY=0.5;exitDx=0;exitDy=0;entryX=1;entryY=1;entryDx=0;entryDy=0;" edge="1" parent="1" source="4DYsukLeD7sC-o7HN6_L-14" target="4DYsukLeD7sC-o7HN6_L-2">
          <mxGeometry width="50" height="50" relative="1" as="geometry">
            <mxPoint x="1070" y="369" as="sourcePoint" />
            <mxPoint x="1070" y="349" as="targetPoint" />
            <Array as="points">
              <mxPoint x="1120" y="389" />
            </Array>
          </mxGeometry>
        </mxCell>
        <mxCell id="4DYsukLeD7sC-o7HN6_L-20" value="" style="endArrow=none;html=1;rounded=0;exitX=0;exitY=0.5;exitDx=0;exitDy=0;entryX=0;entryY=1;entryDx=0;entryDy=0;" edge="1" parent="1" source="4DYsukLeD7sC-o7HN6_L-16" target="4DYsukLeD7sC-o7HN6_L-2">
          <mxGeometry width="50" height="50" relative="1" as="geometry">
            <mxPoint x="1080" y="379" as="sourcePoint" />
            <mxPoint x="1080" y="359" as="targetPoint" />
            <Array as="points">
              <mxPoint x="1000" y="419" />
            </Array>
          </mxGeometry>
        </mxCell>
        <mxCell id="4DYsukLeD7sC-o7HN6_L-21" value="" style="endArrow=none;html=1;rounded=0;exitX=1;exitY=0.5;exitDx=0;exitDy=0;entryX=1;entryY=0.75;entryDx=0;entryDy=0;" edge="1" parent="1" source="4DYsukLeD7sC-o7HN6_L-17" target="4DYsukLeD7sC-o7HN6_L-2">
          <mxGeometry width="50" height="50" relative="1" as="geometry">
            <mxPoint x="1090" y="389" as="sourcePoint" />
            <mxPoint x="1090" y="369" as="targetPoint" />
            <Array as="points">
              <mxPoint x="1140" y="449" />
            </Array>
          </mxGeometry>
        </mxCell>
        <mxCell id="4DYsukLeD7sC-o7HN6_L-24" value="Color" style="ellipse;whiteSpace=wrap;html=1;align=center;" vertex="1" parent="1">
          <mxGeometry x="420" y="360" width="100" height="40" as="geometry" />
        </mxCell>
        <mxCell id="4DYsukLeD7sC-o7HN6_L-25" value="Matrícula" style="ellipse;whiteSpace=wrap;html=1;align=center;fontStyle=4;" vertex="1" parent="1">
          <mxGeometry x="420" y="420" width="100" height="40" as="geometry" />
        </mxCell>
        <mxCell id="4DYsukLeD7sC-o7HN6_L-26" value="Modelo" style="ellipse;shape=doubleEllipse;margin=3;whiteSpace=wrap;html=1;align=center;" vertex="1" parent="1">
          <mxGeometry x="420" y="480" width="100" height="40" as="geometry" />
        </mxCell>
        <mxCell id="4DYsukLeD7sC-o7HN6_L-27" value="Marca" style="ellipse;whiteSpace=wrap;html=1;align=center;" vertex="1" parent="1">
          <mxGeometry x="420" y="530" width="100" height="40" as="geometry" />
        </mxCell>
        <mxCell id="4DYsukLeD7sC-o7HN6_L-28" value="" style="endArrow=none;html=1;rounded=0;exitX=0.5;exitY=0;exitDx=0;exitDy=0;entryX=0.5;entryY=1;entryDx=0;entryDy=0;" edge="1" parent="1" source="4DYsukLeD7sC-o7HN6_L-24" target="4DYsukLeD7sC-o7HN6_L-1">
          <mxGeometry width="50" height="50" relative="1" as="geometry">
            <mxPoint x="790" y="510" as="sourcePoint" />
            <mxPoint x="790" y="350" as="targetPoint" />
            <Array as="points" />
          </mxGeometry>
        </mxCell>
        <mxCell id="4DYsukLeD7sC-o7HN6_L-29" value="" style="endArrow=none;html=1;rounded=0;exitX=1;exitY=1;exitDx=0;exitDy=0;entryX=1;entryY=0.5;entryDx=0;entryDy=0;" edge="1" parent="1" source="4DYsukLeD7sC-o7HN6_L-1" target="4DYsukLeD7sC-o7HN6_L-25">
          <mxGeometry width="50" height="50" relative="1" as="geometry">
            <mxPoint x="800" y="520" as="sourcePoint" />
            <mxPoint x="800" y="360" as="targetPoint" />
            <Array as="points">
              <mxPoint x="530" y="390" />
            </Array>
          </mxGeometry>
        </mxCell>
        <mxCell id="4DYsukLeD7sC-o7HN6_L-31" value="Id_reserva" style="ellipse;whiteSpace=wrap;html=1;align=center;fontStyle=4;" vertex="1" parent="1">
          <mxGeometry x="720" y="224" width="100" height="40" as="geometry" />
        </mxCell>
        <mxCell id="4DYsukLeD7sC-o7HN6_L-32" value="Precio" style="ellipse;whiteSpace=wrap;html=1;align=center;" vertex="1" parent="1">
          <mxGeometry x="720" y="60" width="100" height="40" as="geometry" />
        </mxCell>
        <mxCell id="4DYsukLeD7sC-o7HN6_L-33" value="Feacha_inicio" style="ellipse;shape=doubleEllipse;margin=3;whiteSpace=wrap;html=1;align=center;" vertex="1" parent="1">
          <mxGeometry x="720" y="170" width="100" height="40" as="geometry" />
        </mxCell>
        <mxCell id="4DYsukLeD7sC-o7HN6_L-34" value="Fecha_fin" style="ellipse;shape=doubleEllipse;margin=3;whiteSpace=wrap;html=1;align=center;" vertex="1" parent="1">
          <mxGeometry x="720" y="110" width="100" height="40" as="geometry" />
        </mxCell>
        <mxCell id="4DYsukLeD7sC-o7HN6_L-36" value="Precio_hora" style="ellipse;whiteSpace=wrap;html=1;align=center;" vertex="1" parent="1">
          <mxGeometry x="420" y="584.5" width="100" height="40" as="geometry" />
        </mxCell>
        <mxCell id="4DYsukLeD7sC-o7HN6_L-39" style="edgeStyle=orthogonalEdgeStyle;rounded=0;orthogonalLoop=1;jettySize=auto;html=1;exitX=0.5;exitY=0;exitDx=0;exitDy=0;entryX=0.5;entryY=0;entryDx=0;entryDy=0;" edge="1" parent="1" source="4DYsukLeD7sC-o7HN6_L-37" target="4DYsukLeD7sC-o7HN6_L-2">
          <mxGeometry relative="1" as="geometry" />
        </mxCell>
        <mxCell id="4DYsukLeD7sC-o7HN6_L-37" value="avala" style="rhombus;whiteSpace=wrap;html=1;" vertex="1" parent="1">
          <mxGeometry x="1200" y="279" width="80" height="80" as="geometry" />
        </mxCell>
        <mxCell id="4DYsukLeD7sC-o7HN6_L-40" value="" style="endArrow=none;html=1;rounded=0;exitX=0;exitY=1;exitDx=0;exitDy=0;entryX=0;entryY=0.5;entryDx=0;entryDy=0;" edge="1" parent="1" source="4DYsukLeD7sC-o7HN6_L-1" target="4DYsukLeD7sC-o7HN6_L-26">
          <mxGeometry width="50" height="50" relative="1" as="geometry">
            <mxPoint x="530" y="350" as="sourcePoint" />
            <mxPoint x="530" y="450" as="targetPoint" />
            <Array as="points">
              <mxPoint x="410" y="400" />
            </Array>
          </mxGeometry>
        </mxCell>
        <mxCell id="4DYsukLeD7sC-o7HN6_L-41" value="" style="endArrow=none;html=1;rounded=0;exitX=1;exitY=1;exitDx=0;exitDy=0;entryX=1;entryY=0.5;entryDx=0;entryDy=0;" edge="1" parent="1" source="4DYsukLeD7sC-o7HN6_L-1" target="4DYsukLeD7sC-o7HN6_L-27">
          <mxGeometry width="50" height="50" relative="1" as="geometry">
            <mxPoint x="540" y="360" as="sourcePoint" />
            <mxPoint x="540" y="460" as="targetPoint" />
            <Array as="points">
              <mxPoint x="550" y="430" />
            </Array>
          </mxGeometry>
        </mxCell>
        <mxCell id="4DYsukLeD7sC-o7HN6_L-42" value="" style="endArrow=none;html=1;rounded=0;exitX=0;exitY=0.75;exitDx=0;exitDy=0;entryX=0;entryY=0.5;entryDx=0;entryDy=0;" edge="1" parent="1" source="4DYsukLeD7sC-o7HN6_L-1" target="4DYsukLeD7sC-o7HN6_L-36">
          <mxGeometry width="50" height="50" relative="1" as="geometry">
            <mxPoint x="550" y="370" as="sourcePoint" />
            <mxPoint x="550" y="470" as="targetPoint" />
            <Array as="points">
              <mxPoint x="390" y="400" />
            </Array>
          </mxGeometry>
        </mxCell>
        <mxCell id="4DYsukLeD7sC-o7HN6_L-43" value="&lt;ul type=&quot;disc&quot;&gt;&lt;li&gt;&amp;nbsp;Queremos saber los coches que incluye     cada reserva y los litros de gasolina en el depósito en el momento de     realizar la reserva, pues se cobrarán aparte.&lt;/li&gt;&lt;/ul&gt;" style="text;html=1;strokeColor=none;fillColor=none;align=center;verticalAlign=middle;whiteSpace=wrap;rounded=0;" vertex="1" parent="1">
          <mxGeometry x="800" y="-210" width="220" height="30" as="geometry" />
        </mxCell>
        <mxCell id="4DYsukLeD7sC-o7HN6_L-49" value="(0,n)" style="text;html=1;strokeColor=none;fillColor=none;align=center;verticalAlign=middle;whiteSpace=wrap;rounded=0;" vertex="1" parent="1">
          <mxGeometry x="1130" y="289" width="60" height="30" as="geometry" />
        </mxCell>
        <mxCell id="4DYsukLeD7sC-o7HN6_L-50" value="(0,n)" style="text;html=1;strokeColor=none;fillColor=none;align=center;verticalAlign=middle;whiteSpace=wrap;rounded=0;" vertex="1" parent="1">
          <mxGeometry x="1120" y="229" width="60" height="30" as="geometry" />
        </mxCell>
        <mxCell id="4DYsukLeD7sC-o7HN6_L-51" value="(N:M)" style="text;html=1;strokeColor=none;fillColor=none;align=center;verticalAlign=middle;whiteSpace=wrap;rounded=0;" vertex="1" parent="1">
          <mxGeometry x="1210" y="359" width="60" height="30" as="geometry" />
        </mxCell>
        <mxCell id="4DYsukLeD7sC-o7HN6_L-58" value="" style="edgeStyle=orthogonalEdgeStyle;rounded=0;orthogonalLoop=1;jettySize=auto;html=1;" edge="1" parent="1" source="4DYsukLeD7sC-o7HN6_L-53" target="4DYsukLeD7sC-o7HN6_L-57">
          <mxGeometry relative="1" as="geometry" />
        </mxCell>
        <mxCell id="4DYsukLeD7sC-o7HN6_L-53" value="RESERVA" style="whiteSpace=wrap;html=1;align=center;" vertex="1" parent="1">
          <mxGeometry x="720" y="300" width="100" height="40" as="geometry" />
        </mxCell>
        <mxCell id="4DYsukLeD7sC-o7HN6_L-56" style="edgeStyle=orthogonalEdgeStyle;rounded=0;orthogonalLoop=1;jettySize=auto;html=1;exitX=0;exitY=0.5;exitDx=0;exitDy=0;entryX=1;entryY=0.5;entryDx=0;entryDy=0;" edge="1" parent="1" source="4DYsukLeD7sC-o7HN6_L-54" target="4DYsukLeD7sC-o7HN6_L-53">
          <mxGeometry relative="1" as="geometry" />
        </mxCell>
        <mxCell id="4DYsukLeD7sC-o7HN6_L-74" style="edgeStyle=none;rounded=0;orthogonalLoop=1;jettySize=auto;html=1;exitX=0;exitY=1;exitDx=0;exitDy=0;" edge="1" parent="1" source="4DYsukLeD7sC-o7HN6_L-54" target="4DYsukLeD7sC-o7HN6_L-72">
          <mxGeometry relative="1" as="geometry" />
        </mxCell>
        <mxCell id="4DYsukLeD7sC-o7HN6_L-54" value="hace" style="rhombus;whiteSpace=wrap;html=1;" vertex="1" parent="1">
          <mxGeometry x="870" y="280" width="80" height="80" as="geometry" />
        </mxCell>
        <mxCell id="4DYsukLeD7sC-o7HN6_L-59" style="edgeStyle=orthogonalEdgeStyle;rounded=0;orthogonalLoop=1;jettySize=auto;html=1;exitX=0;exitY=0.5;exitDx=0;exitDy=0;entryX=1;entryY=0.5;entryDx=0;entryDy=0;" edge="1" parent="1" source="4DYsukLeD7sC-o7HN6_L-57" target="4DYsukLeD7sC-o7HN6_L-1">
          <mxGeometry relative="1" as="geometry" />
        </mxCell>
        <mxCell id="4DYsukLeD7sC-o7HN6_L-57" value="tiene" style="rhombus;whiteSpace=wrap;html=1;" vertex="1" parent="1">
          <mxGeometry x="590" y="280" width="80" height="80" as="geometry" />
        </mxCell>
        <mxCell id="4DYsukLeD7sC-o7HN6_L-60" value="DNI" style="ellipse;whiteSpace=wrap;html=1;align=center;" vertex="1" parent="1">
          <mxGeometry x="1010" y="600" width="100" height="40" as="geometry" />
        </mxCell>
        <mxCell id="4DYsukLeD7sC-o7HN6_L-61" value="" style="endArrow=none;html=1;rounded=0;exitX=0;exitY=0.5;exitDx=0;exitDy=0;entryX=0;entryY=1;entryDx=0;entryDy=0;" edge="1" parent="1" source="4DYsukLeD7sC-o7HN6_L-60" target="4DYsukLeD7sC-o7HN6_L-2">
          <mxGeometry width="50" height="50" relative="1" as="geometry">
            <mxPoint x="1020" y="509" as="sourcePoint" />
            <mxPoint x="1020" y="349" as="targetPoint" />
            <Array as="points">
              <mxPoint x="970" y="510" />
              <mxPoint x="970" y="410" />
            </Array>
          </mxGeometry>
        </mxCell>
        <mxCell id="4DYsukLeD7sC-o7HN6_L-62" value="(1,n)" style="text;html=1;strokeColor=none;fillColor=none;align=center;verticalAlign=middle;whiteSpace=wrap;rounded=0;" vertex="1" parent="1">
          <mxGeometry x="820" y="289" width="60" height="30" as="geometry" />
        </mxCell>
        <mxCell id="4DYsukLeD7sC-o7HN6_L-63" value="(1,1)" style="text;html=1;strokeColor=none;fillColor=none;align=center;verticalAlign=middle;whiteSpace=wrap;rounded=0;" vertex="1" parent="1">
          <mxGeometry x="950" y="289" width="60" height="30" as="geometry" />
        </mxCell>
        <mxCell id="4DYsukLeD7sC-o7HN6_L-64" value="(N:1)" style="text;html=1;strokeColor=none;fillColor=none;align=center;verticalAlign=middle;whiteSpace=wrap;rounded=0;" vertex="1" parent="1">
          <mxGeometry x="880" y="249" width="60" height="30" as="geometry" />
        </mxCell>
        <mxCell id="4DYsukLeD7sC-o7HN6_L-65" value="(1,n)" style="text;html=1;strokeColor=none;fillColor=none;align=center;verticalAlign=middle;whiteSpace=wrap;rounded=0;" vertex="1" parent="1">
          <mxGeometry x="530" y="289" width="60" height="30" as="geometry" />
        </mxCell>
        <mxCell id="4DYsukLeD7sC-o7HN6_L-66" value="(0,1)" style="text;html=1;strokeColor=none;fillColor=none;align=center;verticalAlign=middle;whiteSpace=wrap;rounded=0;" vertex="1" parent="1">
          <mxGeometry x="670" y="289" width="60" height="30" as="geometry" />
        </mxCell>
        <mxCell id="4DYsukLeD7sC-o7HN6_L-67" value="(N:1)" style="text;html=1;strokeColor=none;fillColor=none;align=center;verticalAlign=middle;whiteSpace=wrap;rounded=0;" vertex="1" parent="1">
          <mxGeometry x="600" y="250" width="60" height="30" as="geometry" />
        </mxCell>
        <mxCell id="4DYsukLeD7sC-o7HN6_L-68" value="" style="endArrow=none;html=1;rounded=0;entryX=0.5;entryY=1;entryDx=0;entryDy=0;exitX=0.5;exitY=0;exitDx=0;exitDy=0;" edge="1" parent="1" source="4DYsukLeD7sC-o7HN6_L-53" target="4DYsukLeD7sC-o7HN6_L-31">
          <mxGeometry width="50" height="50" relative="1" as="geometry">
            <mxPoint x="800" y="360" as="sourcePoint" />
            <mxPoint x="850" y="310" as="targetPoint" />
          </mxGeometry>
        </mxCell>
        <mxCell id="4DYsukLeD7sC-o7HN6_L-69" value="" style="endArrow=none;html=1;rounded=0;entryX=1;entryY=0.5;entryDx=0;entryDy=0;exitX=1;exitY=0;exitDx=0;exitDy=0;" edge="1" parent="1" source="4DYsukLeD7sC-o7HN6_L-53" target="4DYsukLeD7sC-o7HN6_L-33">
          <mxGeometry width="50" height="50" relative="1" as="geometry">
            <mxPoint x="780" y="310" as="sourcePoint" />
            <mxPoint x="780" y="274" as="targetPoint" />
            <Array as="points">
              <mxPoint x="830" y="250" />
            </Array>
          </mxGeometry>
        </mxCell>
        <mxCell id="4DYsukLeD7sC-o7HN6_L-70" value="" style="endArrow=none;html=1;rounded=0;entryX=0;entryY=0.5;entryDx=0;entryDy=0;exitX=0;exitY=0;exitDx=0;exitDy=0;entryPerimeter=0;" edge="1" parent="1" source="4DYsukLeD7sC-o7HN6_L-53" target="4DYsukLeD7sC-o7HN6_L-34">
          <mxGeometry width="50" height="50" relative="1" as="geometry">
            <mxPoint x="790" y="320" as="sourcePoint" />
            <mxPoint x="790" y="284" as="targetPoint" />
            <Array as="points">
              <mxPoint x="710" y="220" />
            </Array>
          </mxGeometry>
        </mxCell>
        <mxCell id="4DYsukLeD7sC-o7HN6_L-71" value="" style="endArrow=none;html=1;rounded=0;entryX=0.997;entryY=0.321;entryDx=0;entryDy=0;exitX=1;exitY=0.25;exitDx=0;exitDy=0;entryPerimeter=0;" edge="1" parent="1" source="4DYsukLeD7sC-o7HN6_L-53" target="4DYsukLeD7sC-o7HN6_L-32">
          <mxGeometry width="50" height="50" relative="1" as="geometry">
            <mxPoint x="800" y="330" as="sourcePoint" />
            <mxPoint x="800" y="294" as="targetPoint" />
            <Array as="points">
              <mxPoint x="850" y="190" />
            </Array>
          </mxGeometry>
        </mxCell>
        <mxCell id="4DYsukLeD7sC-o7HN6_L-72" value="Litros_depósito" style="ellipse;whiteSpace=wrap;html=1;align=center;" vertex="1" parent="1">
          <mxGeometry x="750" y="360" width="100" height="40" as="geometry" />
        </mxCell>
        <mxCell id="4DYsukLeD7sC-o7HN6_L-75" value="Matrícula" style="ellipse;whiteSpace=wrap;html=1;align=center;" vertex="1" parent="1">
          <mxGeometry x="750" y="410" width="100" height="40" as="geometry" />
        </mxCell>
        <mxCell id="4DYsukLeD7sC-o7HN6_L-76" style="edgeStyle=none;rounded=0;orthogonalLoop=1;jettySize=auto;html=1;exitX=0.5;exitY=1;exitDx=0;exitDy=0;entryX=1.005;entryY=0.3;entryDx=0;entryDy=0;entryPerimeter=0;" edge="1" parent="1" source="4DYsukLeD7sC-o7HN6_L-54" target="4DYsukLeD7sC-o7HN6_L-75">
          <mxGeometry relative="1" as="geometry" />
        </mxCell>
      </root>
    </mxGraphModel>
  </diagram>
</mxfile>
